<?xml version="1.0" standalone="no"?><!DOCTYPE svg PUBLIC "-//W3C//DTD SVG 1.1//EN" "http://www.w3.org/Graphics/SVG/1.1/DTD/svg11.dtd"><svg t="1508809543932" class="icon" style="" viewBox="0 0 1024 1024" version="1.1" xmlns="http://www.w3.org/2000/svg" p-id="3890" xmlns:xlink="http://www.w3.org/1999/xlink" width="16" height="16"><defs><style type="text/css"></style></defs><path d="M682.666667 537.6c72.533333-55.466667 123.733333-140.8 123.733333-238.933333 0-162.133333-132.266667-298.666667-298.666667-298.666667-162.133333 0-298.666667 132.266667-298.666667 298.666667 0 98.133333 51.2 187.733333 123.733333 243.2C157.866667 605.866667 34.133333 780.8 34.133333 981.333333c0 25.6 21.333333 42.666667 42.666667 42.666667 25.6 0 42.666667-21.333333 42.666667-42.666667 0-213.333333 170.666667-384 384-384 0 0 4.266667 0 4.266667 0 0 0 0 0 4.266667 0 213.333333 0 384 170.666667 384 384 0 25.6 21.333333 42.666667 42.666667 42.666667 25.6 0 42.666667-21.333333 42.666667-42.666667C989.866667 776.533333 861.866667 605.866667 682.666667 537.6L682.666667 537.6zM298.666667 298.666667c0-115.2 93.866667-209.066667 209.066667-209.066667s209.066667 93.866667 209.066667 209.066667c0 115.2-93.866667 209.066667-209.066667 209.066667S298.666667 413.866667 298.666667 298.666667L298.666667 298.666667zM298.666667 298.666667" p-id="3891" fill="#979797"></path></svg>